<svg width="16" height="16" viewBox="0 0 16 16" fill="none" xmlns="http://www.w3.org/2000/svg">
<path d="M10.6665 6.6665L12.0994 7.09638C13.0149 7.37102 13.4726 7.50834 13.7362 7.86264C13.9998 8.21694 13.9998 8.69482 13.9998 9.65059V14.6665" stroke="#DEDEDE" stroke-linejoin="round"/>
<path d="M5.33325 6L7.33325 6M5.33325 8.66667L7.33325 8.66667" stroke="#DEDEDE" stroke-linecap="round" stroke-linejoin="round"/>
<path d="M7.99984 14.6668V12.6668C7.99984 12.0383 7.99984 11.724 7.80458 11.5288C7.60931 11.3335 7.29504 11.3335 6.6665 11.3335H5.99984C5.3713 11.3335 5.05703 11.3335 4.86177 11.5288C4.6665 11.724 4.6665 12.0383 4.6665 12.6668V14.6668" stroke="#DEDEDE" stroke-linejoin="round"/>
<path d="M1.33325 14.6665L14.6666 14.6665" stroke="#DEDEDE" stroke-linecap="round"/>
<path d="M2 14.6668V4.47832C2 2.80449 2 1.96757 2.52746 1.55233C3.05491 1.13708 3.83161 1.36253 5.38501 1.81343L8.71835 2.78098C9.65576 3.05307 10.1245 3.18912 10.3956 3.55993C10.6667 3.93074 10.6667 4.43579 10.6667 5.44587V14.6668" stroke="#DEDEDE" stroke-linecap="round" stroke-linejoin="round"/>
</svg>
