<svg width="14" height="14" viewBox="0 0 14 14" fill="none" xmlns="http://www.w3.org/2000/svg">
<path d="M9.33333 4L8 4C6.11438 4 5.17157 4 4.58579 4.58579C4 5.17157 4 6.11438 4 8V9.33333C4 11.219 4 12.1618 4.58579 12.7475C5.17157 13.3333 6.11438 13.3333 8 13.3333H9.33333C11.219 13.3333 12.1618 13.3333 12.7475 12.7475C13.3333 12.1618 13.3333 11.219 13.3333 9.33333V8C13.3333 6.11438 13.3333 5.17157 12.7475 4.58579C12.1618 4 11.219 4 9.33333 4Z" stroke="#DEDEDE" stroke-linecap="round" stroke-linejoin="round"/>
<path d="M9.66675 4L7.66675 4L7.66675 6C7.66675 6.31427 7.66675 6.4714 7.76438 6.56904C7.86201 6.66667 8.01915 6.66667 8.33341 6.66667H9.00008C9.31435 6.66667 9.47149 6.66667 9.56912 6.56904C9.66675 6.4714 9.66675 6.31427 9.66675 6V4Z" stroke="#DEDEDE" stroke-linecap="round" stroke-linejoin="round"/>
<path d="M6 11.3335H8" stroke="#DEDEDE" stroke-linecap="round" stroke-linejoin="round"/>
<path d="M4 1.33317L13.3333 1.33317M4 1.33317V0.666504M4 1.33317V1.99984M13.3333 1.33317V0.666504M13.3333 1.33317V1.99984" stroke="#DEDEDE" stroke-linecap="round" stroke-linejoin="round"/>
<path d="M1.33342 4L1.33341 13.3333M1.33342 4L2.00008 4M1.33342 4L0.666748 4M1.33341 13.3333H2.00008M1.33341 13.3333H0.666748" stroke="#DEDEDE" stroke-linecap="round" stroke-linejoin="round"/>
</svg>
