<svg width="14" height="16" viewBox="0 0 14 16" fill="none" xmlns="http://www.w3.org/2000/svg">
<path d="M12.1636 8.66683C12.6909 7.91094 13.0001 6.99166 13.0001 6.00016C13.0001 3.42283 10.9107 1.3335 8.33342 1.3335C5.75609 1.3335 3.66675 3.42283 3.66675 6.00016C3.66675 6.71589 3.82788 7.39399 4.11584 8.00016" stroke="#DEDEDE" stroke-linecap="round" stroke-linejoin="round"/>
<path d="M8.33333 4.00016C7.59695 4.00016 7 4.44788 7 5.00016C7 5.55245 7.59695 6.00016 8.33333 6.00016C9.06971 6.00016 9.66667 6.44788 9.66667 7.00016C9.66667 7.55245 9.06971 8.00016 8.33333 8.00016M8.33333 4.00016C8.91387 4.00016 9.40776 4.27843 9.5908 4.66683M8.33333 4.00016V3.3335M8.33333 8.00016C7.75279 8.00016 7.25891 7.72189 7.07587 7.3335M8.33333 8.00016V8.66683" stroke="#DEDEDE" stroke-linecap="round"/>
<path d="M1 9.3335H2.59655C2.79264 9.3335 2.98605 9.37768 3.16145 9.46254L4.52276 10.1212C4.69816 10.2061 4.89157 10.2502 5.08767 10.2502H5.78275C6.45502 10.2502 7 10.7776 7 11.4282C7 11.4545 6.98199 11.4776 6.95586 11.4848L5.26192 11.9531C4.95804 12.0371 4.63267 12.0079 4.35 11.8711L2.89474 11.167M7 11.0002L10.0618 10.0594C10.6046 9.89032 11.1914 10.0909 11.5314 10.5617C11.7772 10.9021 11.6771 11.3896 11.319 11.5963L6.30859 14.4872C5.98991 14.671 5.61396 14.7159 5.26344 14.6119L1 13.3468" stroke="#DEDEDE" stroke-linecap="round" stroke-linejoin="round"/>
</svg>
