<svg width="16" height="16" viewBox="0 0 16 16" fill="none" xmlns="http://www.w3.org/2000/svg">
<path d="M1.66675 6.3335L9.00008 6.3335" stroke="#DEDEDE" stroke-linecap="round" stroke-linejoin="round"/>
<path d="M11.6667 6.3335L14.3334 6.3335" stroke="#DEDEDE" stroke-linecap="round" stroke-linejoin="round"/>
<path d="M6.3335 14.3335L6.3335 6.3335" stroke="#DEDEDE"/>
<path d="M6.3335 4.33317L6.3335 1.6665" stroke="#DEDEDE" stroke-linecap="round" stroke-linejoin="round"/>
<path d="M11.3334 11.3332C10.0001 11.3332 8.66675 12.4147 8.66675 14.3332H7.00008C4.48592 14.3332 3.22885 14.3332 2.4478 13.5521C1.66675 12.7711 1.66675 11.514 1.66675 8.99984L1.66675 6.99984C1.66675 4.48568 1.66675 3.2286 2.4478 2.44755C3.22885 1.6665 4.48592 1.6665 7.00008 1.6665L9.00008 1.6665C11.5142 1.6665 12.7713 1.6665 13.5524 2.44755C14.3334 3.2286 14.3334 4.48568 14.3334 6.99984V11.8953C14.3334 13.2417 13.242 14.3332 11.8956 14.3332" stroke="#DEDEDE" stroke-linecap="round" stroke-linejoin="round"/>
</svg>
