<svg width="16" height="16" viewBox="0 0 16 16" fill="none" xmlns="http://www.w3.org/2000/svg">
<path d="M2.59424 13.406C1.66675 12.4785 1.66675 10.9857 1.66675 8.00016C1.66675 5.0146 1.66675 3.52182 2.59424 2.59432C3.52174 1.66683 5.01452 1.66683 8.00008 1.66683C10.9856 1.66683 12.4784 1.66683 13.4059 2.59432C14.3334 3.52182 14.3334 5.0146 14.3334 8.00016C14.3334 10.9857 14.3334 12.4785 13.4059 13.406C12.4784 14.3335 10.9856 14.3335 8.00008 14.3335C5.01452 14.3335 3.52174 14.3335 2.59424 13.406Z" stroke="#DEDEDE" stroke-linecap="round" stroke-linejoin="round"/>
<path d="M1.66675 6L14.3334 6" stroke="#DEDEDE"/>
<path d="M5.3335 10L14.3335 10" stroke="#DEDEDE"/>
<path d="M5.3335 14.3335L5.3335 6.00016" stroke="#DEDEDE"/>
</svg>
