<svg width="16" height="16" viewBox="0 0 16 16" fill="none" xmlns="http://www.w3.org/2000/svg">
<path d="M1.33325 7.99984C1.33325 5.64151 1.33325 4.46235 2.03512 3.6751C2.14738 3.54919 2.2711 3.43274 2.40489 3.32708C3.24134 2.6665 4.4942 2.6665 6.99992 2.6665L8.99992 2.6665C11.5056 2.6665 12.7585 2.6665 13.5949 3.32708C13.7287 3.43274 13.8525 3.54919 13.9647 3.6751C14.6666 4.46235 14.6666 5.64151 14.6666 7.99984C14.6666 10.3582 14.6666 11.5373 13.9647 12.3246C13.8525 12.4505 13.7287 12.5669 13.5949 12.6726C12.7585 13.3332 11.5056 13.3332 8.99992 13.3332H6.99992C4.4942 13.3332 3.24134 13.3332 2.40489 12.6726C2.2711 12.5669 2.14738 12.4505 2.03512 12.3246C1.33325 11.5373 1.33325 10.3582 1.33325 7.99984Z" stroke="#DEDEDE" stroke-linecap="round" stroke-linejoin="round"/>
<path d="M9.70066 8.00016C9.70066 8.92064 8.95446 9.66683 8.03399 9.66683C7.11352 9.66683 6.36732 8.92064 6.36732 8.00016C6.36732 7.07969 7.11352 6.3335 8.03399 6.3335C8.95446 6.3335 9.70066 7.07969 9.70066 8.00016Z" stroke="#DEDEDE"/>
<path d="M3.33325 8L3.99992 8" stroke="#DEDEDE" stroke-linecap="round"/>
<path d="M12 8L12.6667 8" stroke="#DEDEDE" stroke-linecap="round"/>
</svg>
